<svg width="204" height="55" viewBox="0 0 204 55" fill="none" xmlns="http://www.w3.org/2000/svg">
<path fill-rule="evenodd" clip-rule="evenodd" d="M167.137 21.0776C166.921 21.4252 166.597 21.3766 166.597 21.3766L161.556 21.382C161.556 21.382 161.251 21.382 161.049 21.0898C160.877 20.8418 160.989 20.5265 160.989 20.5265L163.401 13.3704C163.401 13.3704 163.529 12.9174 163.995 12.9253C164.394 12.9307 164.543 13.315 164.543 13.315L167.192 20.5265C167.192 20.5265 167.301 20.8126 167.137 21.076L167.137 21.0776ZM180.883 29.9995L170.341 2.51073C170.341 2.51073 170.096 1.80227 169.708 1.47819C169.257 1.1019 168.863 1.09381 168.863 1.09381H164.854C164.854 1.09381 164.446 1.0884 164.046 1.49926C163.77 1.78417 163.563 2.34656 163.514 2.48834C163.512 2.49644 163.507 2.4991 163.501 2.50991C163.491 2.53911 163.48 2.56772 163.469 2.59715C159.873 12.3089 153.335 27.6183 152.162 30.3561C152.162 30.3561 152.059 30.6386 152.209 30.9192C152.357 31.1977 152.695 31.2185 152.695 31.2185L157.115 31.2157C157.115 31.2157 157.243 31.1995 157.379 31.0874C157.488 30.9969 157.528 30.8416 157.528 30.8416L159.247 25.7099C159.247 25.7099 159.318 25.4986 159.501 25.3317C159.693 25.155 160.122 25.2012 160.122 25.2012L168.44 25.1958C168.44 25.1958 168.663 25.1769 168.853 25.2947C168.987 25.379 169.075 25.5513 169.089 25.6143C169.535 26.8803 170.968 30.6563 171.029 30.8373C171.029 30.8373 171.055 30.9621 171.231 31.1152C171.36 31.2265 171.67 31.2125 171.67 31.2125L179.739 31.199C179.739 31.199 180.368 31.2347 180.654 30.8886C181.059 30.4003 180.882 30.0008 180.882 30.0008" fill="black"/>
<path fill-rule="evenodd" clip-rule="evenodd" d="M121.075 27.4338V27.4473C119.954 27.7106 119.214 27.8046 117.514 27.7196C117.409 27.7142 117.045 27.6375 116.791 27.3274C116.526 27.0041 116.524 26.7442 116.521 26.6321C116.296 19.3141 116.337 13.2384 116.523 5.74992C116.525 5.63836 116.586 5.28672 116.857 5.01734C117.126 4.74858 117.496 4.68916 117.604 4.68384C119.3 4.5974 119.956 4.70814 121.074 4.95016V4.961C124.366 5.70166 125.455 8.39278 125.847 16.3318C125.803 23.1959 124.911 26.4691 121.074 27.4339L121.075 27.4338ZM121.134 1.19536V1.1934H108.562C108.565 1.19066 107.926 1.18804 107.5 1.60886C106.959 2.12446 106.968 2.61338 106.968 2.61338V29.8547C106.968 29.8547 106.932 30.4454 107.415 30.8589C107.841 31.2244 108.314 31.2692 108.354 31.2682C111.811 31.2628 120.575 31.2466 121.134 31.2466V31.2459C127.872 31.2702 134.938 27.5379 135.676 16.9818C136.219 4.2858 126.806 1.30406 121.134 1.19496" fill="black"/>
<path fill-rule="evenodd" clip-rule="evenodd" d="M55.9559 28.085C52.1851 28.085 49.1346 25.3934 49.1346 16.1304C49.1346 6.88994 52.1851 4.19808 55.9559 4.19808C59.7477 4.19808 62.7983 6.82276 62.7983 16.1304C62.7983 25.4604 59.7477 28.085 55.9559 28.085ZM55.9987 0.789062H55.9559C44.7753 0.789062 39.3707 7.83215 39.3707 16.1304C39.3707 24.428 44.8842 31.4938 55.9559 31.5386H55.9987C67.1352 31.5824 72.6716 24.4734 72.6716 16.1304C72.6716 7.78699 67.2446 0.789062 55.9987 0.789062Z" fill="black"/>
<path fill-rule="evenodd" clip-rule="evenodd" d="M139.567 1.41739C139.156 1.83465 139.077 2.38837 139.077 2.38837V29.7243C139.077 29.7243 139.074 30.2105 139.498 30.6756C139.911 31.1264 140.458 31.1375 140.458 31.1375H147.586C147.586 31.1375 148.153 31.151 148.558 30.6853C148.973 30.2069 148.97 29.7089 148.97 29.7089V2.3881C148.97 2.3881 148.969 1.7631 148.507 1.39251C148.028 1.00842 147.584 0.972496 147.584 0.972496H140.674C140.674 0.972496 140.003 0.975236 139.567 1.41739Z" fill="black"/>
<path fill-rule="evenodd" clip-rule="evenodd" d="M203.999 29.9842V26.9571C203.999 26.9571 204.012 26.6319 203.633 26.2491C203.288 25.8998 202.843 25.9287 202.843 25.9287L195.425 25.9341C195.425 25.9341 195.42 25.9287 195.412 25.9233C194.898 25.8963 194.489 25.4694 194.474 24.9377C194.469 24.9323 194.466 24.9242 194.466 24.9242L194.517 2.49876C194.517 2.49876 194.516 1.89378 194.066 1.50539C193.575 1.08153 193.127 1.08078 193.127 1.08078H185.684C185.684 1.08078 185.105 1.08889 184.736 1.5394C184.311 2.05794 184.32 2.49552 184.32 2.49552V30.0197C184.32 30.0197 184.351 30.457 184.657 30.82C185.004 31.232 185.475 31.202 185.475 31.202H202.825C202.825 31.202 203.283 31.1677 203.639 30.8246C204.031 30.4478 203.999 29.9838 203.999 29.9838" fill="black"/>
<path fill-rule="evenodd" clip-rule="evenodd" d="M37.8744 30.2289L34.2422 2.94371C34.2422 2.94371 34.1905 2.49023 33.6638 1.9676C33.2196 1.5284 32.662 1.52592 32.662 1.52592H27.3172C27.3172 1.52592 26.7954 1.57778 26.5649 1.96436C26.3978 2.24421 26.3025 2.48272 26.3025 2.48272L20.4428 17.1252C20.3144 17.5357 19.9451 17.8342 19.5037 17.8342C19.0811 17.8342 18.7234 17.5617 18.5803 17.1786L12.4797 2.47861C12.4797 2.47861 12.338 2.10319 12.0779 1.81875C11.7999 1.51412 11.3115 1.52592 11.3115 1.52592H5.87039C5.87039 1.52592 5.24626 1.56076 4.82107 1.91947C4.34544 2.32092 4.27562 2.97832 4.27562 2.97832L0.000151896 30.5971C0.000151896 30.5971 -0.0182571 30.9768 0.350248 31.3566C0.629583 31.644 1.03507 31.6472 1.03507 31.6472H4.16174C4.16174 31.6472 4.58016 31.6194 4.89978 31.2801C5.1756 30.9878 5.1793 30.6937 5.1793 30.6937L6.72806 17.3507C6.72806 17.3507 6.73072 17.3514 6.73331 17.3514C6.76716 16.8201 7.19257 16.3985 7.71775 16.3985C8.10126 16.3985 8.43012 16.6254 8.59495 16.953C8.61328 16.9584 8.62404 16.9638 8.62404 16.9638L14.4404 31.0983C14.4404 31.0983 14.3924 30.9889 14.5863 31.2672C14.8498 31.6432 15.3262 31.6473 15.3262 31.6473H18.0054C18.0054 31.6473 18.3925 31.5995 18.627 31.389C18.8868 31.1557 19.0204 30.7784 19.0204 30.7784L24.6342 16.9759H24.6361C24.772 16.5769 25.1402 16.2887 25.578 16.2887C26.1313 16.2887 26.5793 16.7452 26.5793 17.3089C26.5793 17.3143 26.5774 17.3197 26.5774 17.3251L28.0131 30.2466C28.0131 30.2466 28.0551 30.772 28.4942 31.2423C28.8236 31.5947 29.4059 31.6464 29.4059 31.6464H36.5135C36.5135 31.6464 37.1315 31.6572 37.4708 31.2018C37.9192 30.6002 37.8751 30.228 37.8751 30.228" fill="black"/>
<path fill-rule="evenodd" clip-rule="evenodd" d="M102.796 1.4074C102.46 1.08189 101.98 1.08114 101.98 1.08114H99.7048C99.7048 1.08114 99.1483 1.08388 98.8486 1.46496C98.5348 1.83095 98.519 2.12909 98.519 2.12909L98.5295 16.3891C98.5295 16.3919 98.5303 16.3972 98.5303 16.3999C98.5303 16.4027 98.5295 16.4053 98.5295 16.4107V16.4128H98.5288C98.5235 16.97 98.0826 17.42 97.5393 17.42C97.2587 17.42 97.0059 17.2987 96.8257 17.1056C96.8238 17.1059 96.8204 17.1085 96.8204 17.1085L83.7682 1.82617C83.7682 1.82617 83.4678 1.46579 83.3113 1.33266C83.0103 1.07821 82.5983 1.08118 82.5983 1.08118H77.6277C77.6277 1.08118 77.0078 1.04799 76.5498 1.48518C76.0375 1.97516 76.0527 2.50267 76.0527 2.50267L76.0711 30.1652C76.0711 30.1652 76.0921 30.4949 76.3936 30.8748C76.6579 31.2056 77.1138 31.2024 77.1138 31.2024H80.2116C80.2116 31.2024 80.5665 31.2003 80.935 30.8388C81.2326 30.546 81.2402 30.3396 81.2402 30.3396L81.256 16.914C81.2556 16.8951 81.2507 16.8762 81.2507 16.857C81.2507 16.2935 81.6945 15.8367 82.242 15.8367C82.5213 15.8367 82.7733 15.9569 82.9533 16.1487C82.9559 16.1459 82.9585 16.1406 82.9585 16.1406L95.6355 30.487C95.6355 30.487 95.8467 30.7193 96.1162 30.9805C96.3404 31.1963 96.6974 31.2015 96.6974 31.2015H101.761C101.761 31.2015 102.355 31.2123 102.713 30.7477C103.139 30.1956 103.138 29.7766 103.138 29.7766V2.11723C103.138 2.11723 103.128 1.72885 102.797 1.40658" fill="black"/>
<path d="M102.011 40.3238C149.617 40.3238 188.438 39.8199 188.438 39.1636C188.438 38.5291 149.617 38.004 102.011 38.004C54.4063 38.004 15.5615 38.5291 15.5615 39.1636C15.5615 39.8199 54.4063 40.3238 102.011 40.3238Z" fill="black"/>
<path d="M20.9265 54.7891H25.7067V53.4983H22.8755V51.3616H24.851V50.1474H22.8913V48.3432H25.6251V47.0809H20.9845L20.9265 54.7891Z" fill="black"/>
<path d="M150.024 47.0591H148.08V54.7891H150.024V47.0591Z" fill="black"/>
<path fill-rule="evenodd" clip-rule="evenodd" d="M72.9895 46.9187C71.9539 47.1274 71.2244 47.8518 71.2244 48.858V52.9574C71.2244 53.9637 72.1014 54.7891 73.0791 54.7891H75.0182C75.996 54.7891 76.6935 53.9637 76.6935 52.9574V48.858C76.6935 47.8518 75.9064 46.9187 74.9286 46.9187C74.9286 46.9187 73.8003 46.7554 72.9895 46.9187ZM73.7438 48.1679H74.1743C74.494 48.1679 74.7514 48.4327 74.7514 48.7617V53.0537C74.7514 53.3827 74.494 53.6473 74.1743 53.6473H73.7438C73.4241 53.6473 73.1668 53.3827 73.1668 53.0537V48.7617C73.1668 48.4327 73.4241 48.1679 73.7438 48.1679Z" fill="black"/>
<path d="M85.517 47.0954C85.4613 47.094 85.4047 47.094 85.3476 47.0972L82.3954 47.1009V54.7891H85.8325C85.8325 54.7891 87.2848 54.6457 87.6017 53.7379C87.6017 53.7379 87.903 53.369 87.8661 52.7221V49.0689C87.8608 48.4818 87.605 47.8572 87.0187 47.5582C87.0187 47.5582 86.3532 47.1149 85.517 47.0954ZM84.5751 48.4044C84.7144 48.403 84.9101 48.4067 85.1352 48.4272C85.4152 48.453 85.6864 48.7029 85.8928 48.959C85.9189 49.0877 85.984 52.9395 85.9087 53.0129C85.9087 53.0129 85.7216 53.3765 85.5658 53.4227C85.2806 53.4879 84.3209 53.4793 84.3209 53.4793L84.3526 48.4127C84.3526 48.4127 84.4357 48.4059 84.5751 48.4044Z" fill="black"/>
<path fill-rule="evenodd" clip-rule="evenodd" d="M50.0307 47.1014V48.3621H51.7683V54.7891H53.7613V48.3621H55.4896V47.1014H50.0307Z" fill="black"/>
<path fill-rule="evenodd" clip-rule="evenodd" d="M137.578 47.1014V48.3621H139.315V54.7891H141.308V48.3621H143.037V47.1014H137.578Z" fill="black"/>
<path d="M117.833 54.7891H122.614V53.5128H119.782V51.4003H121.758V50.1998H119.798V48.4159H122.532V47.1678H117.891L117.833 54.7891Z" fill="black"/>
<path d="M40.8057 54.7891H45.5859V53.4983H42.7547V51.3616H44.7302V50.1474H42.7705V48.3432H45.5043V47.0808H40.8637L40.8057 54.7891Z" fill="black"/>
<path d="M31.3638 47.1569H33.3288L33.3497 53.1349C33.3531 53.4462 33.5539 53.4619 33.6435 53.5119L35.8431 53.5062L35.6529 54.7891H32.8006C32.8006 54.7891 31.723 54.7347 31.4061 53.4518L31.3638 47.1569Z" fill="black"/>
<path d="M159.242 49.7718H161.186V48.2932C161.186 48.2932 160.915 47.6225 160.295 47.2689C159.772 46.9152 158.78 46.8641 158.78 46.8641C158.78 46.8641 158.038 46.8411 157.425 46.9717C155.738 47.2739 155.772 48.6347 155.772 48.6347L155.817 53.6056C156.213 54.3744 156.747 54.5627 156.747 54.5627C157.204 54.8508 158.289 54.7818 158.289 54.7818L159.171 54.7741C160.51 54.8068 160.993 53.7319 160.993 53.7319C161.154 53.4139 161.195 52.9291 161.195 52.9291V51.899H159.231V53.2289C159.178 53.5931 158.745 53.7001 158.745 53.7001L158.204 53.6987C158.204 53.6987 157.778 53.6402 157.681 53.1943V48.5241C157.789 48.1435 158.257 48.1815 158.257 48.1815H158.812C159.216 48.2353 159.21 48.5911 159.21 48.5911L159.242 49.7718Z" fill="black"/>
<path d="M177.246 52.5541L179.114 52.3389C179.32 53.1597 179.38 53.531 180.22 53.4386C181.462 53.4114 181.056 52.6156 181.056 52.6156C180.899 52.1544 179.458 51.2472 179.204 51.0474C179.204 51.0474 177.814 50.0864 177.799 49.8481C177.799 49.8481 177.052 49.0793 177.68 47.9108C178.412 46.9652 179.263 46.9421 179.263 46.9421C180.361 46.5731 181.639 47.0498 181.639 47.0498C183.023 47.7129 182.909 48.8794 182.909 48.8794L180.981 49.1046C180.981 49.1046 181 48.5724 180.838 48.3871C180.625 48.1455 180.373 48.1467 180.062 48.1623C179.999 48.1351 178.99 48.3672 179.547 49.0793L181.953 50.9858C183.738 52.3231 182.892 53.6556 182.744 53.7534C182.449 54.384 181.534 54.6606 181.534 54.6606C181.08 54.8889 178.667 54.7565 178.905 54.6913C178.905 54.6913 177.88 54.4649 177.515 53.5843L177.246 52.5541Z" fill="black"/>
<path d="M127.424 52.5541L129.292 52.3389C129.498 53.1597 129.559 53.531 130.398 53.4386C131.64 53.4114 131.234 52.6156 131.234 52.6156C131.077 52.1544 129.636 51.2472 129.382 51.0473C129.382 51.0473 127.992 50.0864 127.977 49.8481C127.977 49.8481 127.23 49.0793 127.858 47.9108C128.59 46.9652 129.441 46.9421 129.441 46.9421C130.539 46.5731 131.817 47.0498 131.817 47.0498C133.201 47.7129 133.087 48.8794 133.087 48.8794L131.159 49.1046C131.159 49.1046 131.179 48.5724 131.016 48.3871C130.803 48.1455 130.551 48.1467 130.24 48.1623C130.177 48.1351 129.168 48.3672 129.725 49.0793L132.131 50.9858C133.916 52.3231 133.07 53.6556 132.922 53.7534C132.627 54.384 131.712 54.6606 131.712 54.6606C131.258 54.8889 128.845 54.7565 129.083 54.6913C129.083 54.6913 128.058 54.4649 127.693 53.5843L127.424 52.5541Z" fill="black"/>
<path d="M119.146 46.9117L120.67 46.9271L122.269 45.6048L119.983 45.5894L119.146 46.9117Z" fill="black"/>
<path d="M104.684 54.7891H106.432L106.447 50.0842L107.795 54.7891H108.767L110.137 50.1303L110.122 54.7737H111.885V47.1629H109.435L108.319 51.4512L107.09 47.1321H104.624L104.684 54.7891Z" fill="black"/>
<path d="M63.6197 47.0431L60.5037 47.0624L60.553 54.7565H62.4334V51.6362L63.0249 51.5818L64.1871 54.7891H66.0991L64.863 51.2666C66.8386 49.8533 65.5815 47.6136 65.1087 47.456C65.1087 47.456 64.486 47.0431 63.6197 47.0431ZM62.771 48.1782C63.1472 48.1844 63.6853 48.2615 63.8797 48.6284C63.8797 48.6284 64.0056 49.3433 63.877 49.7184C63.5123 50.4849 62.3779 50.2456 62.3779 50.2456V48.1963C62.3779 48.1963 62.5453 48.1745 62.771 48.1782Z" fill="black"/>
<path fill-rule="evenodd" clip-rule="evenodd" d="M95.1691 46.8689C94.1335 47.0775 93.404 47.8019 93.404 48.8082V52.9076C93.404 53.9138 94.1913 54.7891 95.1691 54.7891H97.1082C98.0859 54.7891 98.873 53.9138 98.873 52.9076V48.8082C98.873 47.8019 98.0859 46.8689 97.1082 46.8689C97.1082 46.8689 95.9799 46.7055 95.1691 46.8689ZM95.9233 48.118H96.3539C96.6735 48.118 96.9309 48.3829 96.9309 48.7118V53.0039C96.9309 53.3328 96.6735 53.5975 96.3539 53.5975H95.9233C95.6037 53.5975 95.3463 53.3328 95.3463 53.0039V48.7118C95.3463 48.3829 95.6037 48.118 95.9233 48.118Z" fill="black"/>
<path fill-rule="evenodd" clip-rule="evenodd" d="M168.364 46.8689C167.328 47.0775 166.599 47.8019 166.599 48.8082V52.9076C166.599 53.9138 167.386 54.7891 168.364 54.7891H170.303C171.281 54.7891 172.068 53.9138 172.068 52.9076V48.8082C172.068 47.8019 171.281 46.8689 170.303 46.8689C170.303 46.8689 169.175 46.7055 168.364 46.8689ZM169.118 48.118H169.549C169.868 48.118 170.126 48.3829 170.126 48.7118V53.0039C170.126 53.3328 169.868 53.5975 169.549 53.5975H169.118C168.798 53.5975 168.541 53.3328 168.541 53.0039V48.7118C168.541 48.3829 168.798 48.118 169.118 48.118Z" fill="black"/>
</svg>
